<svg id="visual" viewBox="0 0 900 450" width="900" height="450" xmlns="http://www.w3.org/2000/svg" xmlns:xlink="http://www.w3.org/1999/xlink" version="1.1"><rect x="0" y="0" width="900" height="450" fill="#282C33"></rect><path d="M0 327L11.5 333.5C23 340 46 353 69 348.3C92 343.7 115 321.3 138.2 312.7C161.3 304 184.7 309 207.8 320.5C231 332 254 350 277 355.5C300 361 323 354 346 348C369 342 392 337 415.2 342.2C438.3 347.3 461.7 362.7 484.8 358C508 353.3 531 328.7 554 328.5C577 328.3 600 352.7 623 361.2C646 369.7 669 362.3 692.2 361C715.3 359.7 738.7 364.3 761.8 361.7C785 359 808 349 831 337.8C854 326.7 877 314.3 888.5 308.2L900 302L900 451L888.5 451C877 451 854 451 831 451C808 451 785 451 761.8 451C738.7 451 715.3 451 692.2 451C669 451 646 451 623 451C600 451 577 451 554 451C531 451 508 451 484.8 451C461.7 451 438.3 451 415.2 451C392 451 369 451 346 451C323 451 300 451 277 451C254 451 231 451 207.8 451C184.7 451 161.3 451 138.2 451C115 451 92 451 69 451C46 451 23 451 11.5 451L0 451Z" fill="#C778DD" stroke-linecap="round" stroke-linejoin="miter"></path></svg>